HIERARCHY
ROOT Hips
{
	OFFSET 0.00000 0.00000 0.00000
	CHANNELS 6 Xposition Yposition Zposition Yrotation Zrotation Xrotation 
	JOINT Lumbar
	{
		OFFSET 0 0 0
		CHANNELS 3 Zrotation Xrotation Yrotation
		JOINT Neck
		{
			OFFSET 0.00 0.2701 0.00
			CHANNELS 3 Zrotation Xrotation Yrotation
			End Site
			{
				OFFSET 0.00 0.1379 0.00
			}
		}
		JOINT RightShoulder
		{
			OFFSET 0.0119 0.2289 0.1181
			CHANNELS 3 Zrotation Xrotation Yrotation
			JOINT RightElbow
			{
				OFFSET 0.00 -0.1475 0.00
				CHANNELS 2 Zrotation Yrotation
				JOINT RightWrist
				{
					OFFSET 0.00 -0.1605 0.00
					CHANNELS 2 Zrotation Xrotation
					End Site
					{
						OFFSET 0.0040 -0.1068 0.0006
					}
				}
			}
		}
		JOINT LeftShoulder
		{
			OFFSET 0.0119 0.2289 -0.1181
			CHANNELS 3 Zrotation Xrotation Yrotation
			JOINT LeftElbow
			{
				OFFSET 0.00 -0.1475 0.00
				CHANNELS 2 Zrotation Yrotation
				JOINT LeftWrist
				{
					OFFSET 0.00 -0.1605 0.00
					CHANNELS 2 Zrotation Xrotation
					End Site
					{
						OFFSET 0.0040 -0.1068 -0.0006
					}
				}
			}
		}
	}
	JOINT RightHip
	{
		OFFSET 0.0316 -0.0424 0.0458
		CHANNELS 3 Zrotation Xrotation Yrotation
		JOINT RightKnee
		{
			OFFSET 0.00 -0.2438 0.00
			CHANNELS 1 Zrotation
			JOINT RightAnkle
			{
				OFFSET 0.00 -0.2449 0.00
				CHANNELS 3 Zrotation Xrotation Yrotation
				End Site
				{
					OFFSET 0.1237 -0.0542 0.0051
				}
			}
		}
	}
	JOINT LeftHip
	{
		OFFSET 0.0316 -0.0424 -0.0458
		CHANNELS 3 Zrotation Xrotation Yrotation
		JOINT LeftKnee
		{
			OFFSET 0.00 -0.2438 0.00
			CHANNELS 1 Zrotation
			JOINT LeftAnkle
			{
				OFFSET 0.00 -0.2449 0.00
				CHANNELS 3 Zrotation Xrotation Yrotation
				End Site
				{
					OFFSET 0.1237 -0.0542 -0.0051
				}
			}
		}
	}
}
MOTION
Frames: 24
Frame Time: 0.02
0.58931 0.0974 0.21214 746.54795 -21.62532 -4.48475 42.71445 -1.81355 1.39303 -10.44362 -0.00497 -2.11994 166.38683 -161.74935 -87.14683 134.30097 83.16314 -75.22914 -21.88498 -11.73043 11.2608 -12.13522 111.79705 -96.28907 -27.33824 5.34704 36.09453 -1.94934 -9.9213 -51.0854 -7.24148 -2.23646 -3.35434 39.74595 6.3798 15.04765 -24.85451 -7.45324 2.6159 3.53625
0.59321 0.09854 0.20992 747.49905 -21.71489 -4.88625 42.70001 -1.83978 0.77768 -10.176 -0.05088 -2.11994 166.38683 -162.72588 -87.14683 134.30114 83.79234 -75.22913 -21.88489 -9.74232 10.98462 -14.0464 111.95218 -94.85202 -26.52138 5.16854 36.95001 -1.63331 -9.8629 -48.62973 -7.16229 -2.32757 -3.39494 39.22345 6.47908 14.75765 -24.49833 -7.40024 2.55334 3.50561
0.59713 0.09966 0.20785 748.52694 -21.89677 -5.28454 42.77351 -1.87072 0.14511 -9.88273 -0.11105 -2.11994 166.38684 -163.33682 -87.14683 134.30117 84.37541 -75.22913 -21.88489 -7.60829 10.57839 -16.08705 112.18339 -93.83527 -25.97586 5.03506 37.68374 -1.20655 -9.48207 -45.22829 -7.21179 -2.42157 -3.44289 38.83854 6.53145 14.16604 -24.15245 -7.36369 2.51281 3.48776
0.60104 0.10079 0.20571 749.50917 -22.04338 -5.67984 42.81963 -1.898 -0.46489 -9.60389 -0.16488 -2.11994 166.38684 -164.1103 -87.14683 134.30112 84.97596 -75.22913 -21.88486 -5.54669 10.23365 -18.06397 112.37026 -92.60335 -25.31211 4.87618 38.47754 -0.84218 -9.2441 -42.30069 -7.1973 -2.51263 -3.48643 38.39773 6.60596 13.71745 -23.80285 -7.32011 2.46341 3.46456
0.60494 0.10193 0.20359 750.54047 -22.16506 -6.09753 42.81524 -1.92969 -1.13948 -9.31302 -0.21832 -2.11994 166.38684 -164.88969 -87.14683 134.30117 85.59012 -75.22912 -21.88479 -3.44801 9.87645 -20.07489 112.59895 -91.44573 -24.60632 4.73475 39.24813 -0.42284 -9.02215 -39.14528 -7.19991 -2.61417 -3.53613 37.93213 6.68262 13.25084 -23.44807 -7.27464 2.40792 3.43876
0.60888 0.10305 0.20147 751.48514 -22.35811 -6.46614 42.93479 -1.95371 -1.68221 -9.04161 -0.2757 -2.11994 166.38685 -165.57259 -87.14683 134.30116 86.16455 -75.22912 -21.88483 -1.40024 9.51525 -22.03631 112.75957 -90.24655 -24.06206 4.56943 40.03478 -0.09329 -8.69476 -36.25786 -7.19996 -2.69302 -3.57405 37.54805 6.74186 12.74894 -23.10609 -7.23717 2.37071 3.42161
0.61292 0.10415 0.19928 752.18718 -22.74123 -6.70359 43.38951 -1.95987 -1.86263 -8.82541 -0.3428 -2.11994 166.38686 -166.08962 -87.14684 134.30119 86.65117 -75.22916 -21.88518 0.5207 9.17482 -23.88203 112.69884 -88.79704 -23.87645 4.32104 40.95217 -0.03784 -8.09609 -34.31672 -7.15979 -2.71047 -3.57866 37.37521 6.75997 12.20436 -22.80769 -7.21603 2.38008 3.42588
0.61698 0.10524 0.1971 752.79607 -23.19001 -6.89059 43.96323 -1.95764 -1.90829 -8.63051 -0.41292 -2.11994 166.38688 -166.52151 -87.14685 134.30122 87.09779 -75.22921 -21.88563 2.37518 8.83543 -25.66225 112.56937 -87.30131 -23.84958 4.04832 41.8804 -0.07702 -7.41213 -32.68783 -7.11376 -2.70415 -3.57081 37.27595 6.76217 11.63708 -22.52002 -7.2027 2.40703 3.43839
0.62103 0.10634 0.19493 753.43738 -23.59805 -7.09792 44.47254 -1.95662 -2.01158 -8.42902 -0.48019 -2.11994 166.3869 -166.98666 -87.14686 134.30124 87.55596 -75.22925 -21.88602 4.22671 8.4956 -27.43695 112.48089 -85.85113 -23.76783 3.79147 42.76799 -0.07448 -6.80563 -30.93867 -7.07234 -2.70687 -3.56775 37.12964 6.77374 11.09125 -22.22084 -7.18692 2.42515 3.44679
0.62512 0.10744 0.1927 754.12383 -24.05468 -7.3163 45.02778 -1.96669 -2.13111 -8.21375 -0.55433 -2.11994 166.38692 -167.46206 -87.14687 134.30128 88.04016 -75.2293 -21.88649 6.22342 8.15009 -29.36605 112.35432 -84.3096 -23.62668 3.51692 43.80266 -0.06385 -6.02647 -29.06619 -7.02704 -2.71706 -3.56853 37.04497 6.77468 10.48758 -21.95044 -7.16706 2.44753 3.45715
0.62912 0.10852 0.1906 754.69241 -24.42534 -7.49954 45.51545 -1.95165 -2.18411 -8.03237 -0.61451 -2.11994 166.38694 -167.90037 -87.14688 134.3013 88.46165 -75.22934 -21.88683 7.90006 7.81956 -30.95534 112.2893 -82.94443 -23.63805 3.2715 44.53432 -0.09241 -5.58854 -27.535 -6.98682 -2.70615 -3.55842 36.84842 6.79466 10.00348 -21.62197 -7.15738 2.46496 3.46524
0.63291 0.10953 0.18879 754.96369 -24.53445 -7.59949 45.77806 -1.86895 -2.09054 -7.94109 -0.63713 -2.11994 166.38694 -168.26137 -87.14688 134.3013 88.71712 -75.22934 -21.88681 8.70818 7.52087 -31.62898 112.41475 -82.05374 -24.07864 3.12473 44.43455 -0.22036 -6.13369 -26.89553 -6.9615 -2.6414 -3.51995 36.3168 6.87018 9.85106 -21.1348 -7.17357 2.46413 3.46477
0.63662 0.11051 0.18712 755.1181 -24.55575 -7.66554 45.96968 -1.76133 -1.93397 -7.8828 -0.64534 -2.11994 166.38693 -168.58873 -87.14687 134.30129 88.91193 -75.22932 -21.88666 9.19631 7.23973 -31.961 112.60357 -81.34312 -24.65764 3.00605 44.02871 -0.38233 -7.02212 -26.58915 -6.941 -2.55655 -3.4712 35.67082 6.96574 9.82185 -20.58786 -7.19975 2.45768 3.46171
0.64036 0.11149 0.18539 755.32215 -24.62213 -7.74625 46.19972 -1.66537 -1.8032 -7.80861 -0.65878 -2.11994 166.38693 -168.93098 -87.14687 134.30129 89.13611 -75.22931 -21.88656 9.83031 6.95715 -32.44433 112.76041 -80.5654 -25.14065 2.86567 43.75832 -0.51994 -7.74306 -26.11791 -6.918 -2.48167 -3.42797 35.0819 7.05304 9.7406 -20.06556 -7.22148 2.45389 3.45992
0.6441 0.11249 0.18362 755.53792 -24.66919 -7.82847 46.40869 -1.56771 -1.67898 -7.73971 -0.67739 -2.11994 166.38693 -169.27306 -87.14687 134.30128 89.34996 -75.2293 -21.88649 10.45854 6.64649 -32.94198 112.92781 -79.72988 -25.76724 2.76032 43.50328 -0.6985 -8.51312 -25.71254 -6.89607 -2.40208 -3.3806 34.47437 7.13641 9.64232 -19.55474 -7.24302 2.45023 3.45799
0.64783 0.11346 0.18198 755.70238 -24.73455 -7.90001 46.64224 -1.46776 -1.5288 -7.66643 -0.68241 -2.11994 166.38692 -169.60698 -87.14687 134.30128 89.57306 -75.22929 -21.88633 11.02572 6.39905 -33.32966 113.08981 -79.05084 -26.1278 2.59132 43.14392 -0.79843 -9.25875 -25.24682 -6.87324 -2.32827 -3.33972 33.87718 7.23265 9.60829 -19.00509 -7.26732 2.44481 3.45567
0.65158 0.11437 0.18071 755.75698 -24.87357 -7.95177 46.9677 -1.3677 -1.31564 -7.5807 -0.64797 -2.11994 166.38691 -169.94168 -87.14686 134.30126 89.82322 -75.22925 -21.88596 11.48537 6.31727 -33.49506 113.21641 -78.82389 -25.69927 2.21951 42.56752 -0.67469 -9.89646 -24.51887 -6.8455 -2.27167 -3.31802 33.33865 7.36211 9.7288 -18.36773 -7.2958 2.43511 3.45255
0.65531 0.11524 0.17958 755.76382 -25.03345 -7.99388 47.31836 -1.26621 -1.08067 -7.48778 -0.60152 -2.11994 166.3869 -170.26689 -87.14685 134.30125 90.08771 -75.2292 -21.88551 11.89855 6.2994 -33.56172 113.33691 -78.73799 -25.00132 1.78638 41.89758 -0.47004 -10.49111 -23.72009 -6.81693 -2.2223 -3.30346 32.81384 7.50335 9.90822 -17.6924 -7.3268 2.42396 3.4492
0.65904 0.11612 0.1784 755.79089 -25.18234 -8.0398 47.65265 -1.16533 -0.86056 -7.39308 -0.56387 -2.11994 166.38689 -170.58716 -87.14685 134.30123 90.35427 -75.22916 -21.88512 12.34415 6.2553 -33.67603 113.4635 -78.54375 -24.43931 1.39488 41.27273 -0.30054 -11.07611 -22.96122 -6.78957 -2.17228 -3.28657 32.2808 7.63768 10.05645 -17.03122 -7.35732 2.41382 3.44611
0.66283 0.11702 0.17718 755.8201 -25.33444 -8.08719 48.00583 -1.06375 -0.6165 -7.32122 -0.51086 -2.11994 166.38687 -170.94567 -87.14684 134.30121 90.58149 -75.2291 -21.88463 12.72927 6.19986 -33.76895 113.57721 -78.53617 -23.82495 0.94695 40.62556 -0.1383 -11.79215 -22.18064 -6.75885 -2.11084 -3.26562 31.75166 7.77958 10.22882 -16.38106 -7.38559 2.40173 3.44213
0.66649 0.11787 0.17606 755.835 -25.48611 -8.12937 48.32593 -0.9636 -0.41894 -7.1992 -0.4881 -2.11994 166.38687 -171.22224 -87.14683 134.3012 90.89605 -75.22907 -21.88433 13.23547 6.18308 -33.88454 113.7168 -78.17897 -23.25417 0.60073 40.0076 0.05771 -12.22585 -21.42525 -6.73485 -2.07465 -3.25473 31.21988 7.90787 10.36179 -15.69973 -7.41873 2.39374 3.44015
0.66986 0.11859 0.17515 755.82353 -25.63028 -8.16241 48.55393 -0.8681 -0.34747 -6.94443 -0.54387 -2.11994 166.38687 -171.27576 -87.14684 134.30122 91.43819 -75.2291 -21.8846 14.07344 6.25674 -34.1123 113.91773 -76.75231 -22.86568 0.55834 39.48646 0.3362 -11.84323 -20.7449 -6.72994 -2.11114 -3.27191 30.67157 7.99898 10.38415 -14.94135 -7.46532 2.39557 3.44275
0.6731 0.11926 0.17433 755.79991 -25.77396 -8.19023 48.74712 -0.77428 -0.32539 -6.63875 -0.63196 -2.11994 166.38689 -171.24472 -87.14684 134.30124 92.06982 -75.22915 -21.88506 15.0399 6.36715 -34.36255 114.14666 -74.98114 -22.53036 0.61895 39.00078 0.6444 -11.18495 -20.09285 -6.73175 -2.17206 -3.29865 30.12178 8.0753 10.36195 -14.15303 -7.51536 2.40247 3.44786
0.67637 0.11994 0.17348 755.78114 -25.91906 -8.21871 48.953 -0.67947 -0.28595 -6.35333 -0.71066 -2.11994 166.3869 -171.25514 -87.14685 134.30125 92.66755 -75.22919 -21.88541 15.95723 6.4611 -34.58849 114.37019 -73.41222 -22.17262 0.62687 38.50479 0.93322 -10.68222 -19.43392 -6.73023 -2.21879 -3.31971 29.57716 8.15604 10.3512 -13.37917 -7.5649 2.40761 3.45211
